<?xml version="1.0" encoding="UTF-8"?>
<svg xmlns="http://www.w3.org/2000/svg" xmlns:xlink="http://www.w3.org/1999/xlink" width="120px" height="135px" viewBox="0 0 48 53" version="1.1">
<g id="surface1">
<path style=" stroke:none;fill-rule:nonzero;fill:rgb(39.607843%,38.823529%,100%);fill-opacity:1;" d="M 43.125 27.496094 C 42.808594 27.140625 42.476562 26.785156 42.125 26.429688 C 42.371094 26.175781 42.609375 25.921875 42.835938 25.667969 C 47.15625 20.890625 48.980469 16.089844 47.289062 13.210938 C 45.671875 10.445312 40.851562 9.625 34.816406 10.78125 C 34.222656 10.894531 33.628906 11.023438 33.042969 11.167969 C 32.929688 10.785156 32.8125 10.40625 32.683594 10.027344 C 30.636719 3.949219 27.332031 -0.00390625 23.953125 0 C 20.714844 0 17.582031 3.703125 15.582031 9.429688 C 15.382812 9.996094 15.203125 10.5625 15.03125 11.136719 C 14.640625 11.039062 14.246094 10.953125 13.851562 10.871094 C 7.484375 9.585938 2.359375 10.433594 0.671875 13.320312 C -0.945312 16.085938 0.746094 20.605469 4.785156 25.167969 C 5.183594 25.621094 5.597656 26.0625 6.023438 26.492188 C 5.523438 27 5.050781 27.503906 4.609375 28.007812 C 0.667969 32.507812 -0.925781 36.957031 0.6875 39.707031 C 2.355469 42.554688 7.410156 43.484375 13.5625 42.292969 C 14.0625 42.195312 14.554688 42.085938 15.050781 41.964844 C 15.230469 42.585938 15.429688 43.199219 15.644531 43.808594 C 17.636719 49.421875 20.75 53 23.976562 53 C 27.3125 53 30.652344 49.148438 32.683594 43.304688 C 32.84375 42.839844 32.992188 42.363281 33.136719 41.871094 C 33.773438 42.027344 34.414062 42.164062 35.0625 42.28125 C 40.988281 43.386719 45.691406 42.519531 47.304688 39.765625 C 48.972656 36.917969 47.25 32.144531 43.125 27.496094 Z M 2.664062 14.445312 C 3.703125 12.671875 7.890625 11.976562 13.386719 13.089844 C 13.738281 13.160156 14.097656 13.238281 14.460938 13.328125 C 13.925781 15.667969 13.546875 18.035156 13.328125 20.425781 C 11.34375 21.800781 9.457031 23.296875 7.671875 24.910156 C 7.277344 24.511719 6.894531 24.097656 6.523438 23.679688 C 3.054688 19.769531 1.6875 16.113281 2.664062 14.445312 Z M 13.121094 29.625 C 11.75 28.601562 10.46875 27.550781 9.3125 26.496094 C 10.46875 25.449219 11.746094 24.402344 13.117188 23.378906 C 13.066406 24.421875 13.042969 25.460938 13.046875 26.507812 C 13.046875 27.546875 13.074219 28.589844 13.121094 29.625 Z M 13.121094 40.070312 C 10.789062 40.582031 8.382812 40.664062 6.019531 40.316406 C 4.707031 40.214844 3.5 39.585938 2.679688 38.574219 C 1.695312 36.90625 2.976562 33.332031 6.347656 29.484375 C 6.773438 29.003906 7.207031 28.535156 7.664062 28.078125 C 9.449219 29.699219 11.34375 31.203125 13.332031 32.582031 C 13.550781 34.996094 13.933594 37.398438 14.476562 39.769531 C 14.027344 39.878906 13.574219 39.980469 13.117188 40.070312 Z M 32.226562 18.765625 C 31.324219 18.207031 30.410156 17.664062 29.484375 17.140625 C 28.574219 16.625 27.65625 16.125 26.722656 15.648438 C 28.320312 14.984375 29.886719 14.421875 31.402344 13.964844 C 31.757812 15.550781 32.035156 17.152344 32.226562 18.765625 Z M 17.757812 10.164062 C 19.46875 5.257812 22.003906 2.265625 23.957031 2.265625 C 26.039062 2.261719 28.738281 5.492188 30.503906 10.738281 C 30.621094 11.082031 30.726562 11.425781 30.828125 11.769531 C 28.507812 12.480469 26.238281 13.339844 24.03125 14.34375 C 21.835938 13.328125 19.570312 12.460938 17.253906 11.742188 C 17.410156 11.210938 17.574219 10.683594 17.757812 10.164062 Z M 16.683594 13.9375 C 18.261719 14.425781 19.816406 14.996094 21.335938 15.640625 C 19.449219 16.597656 17.613281 17.640625 15.824219 18.765625 C 16.042969 17.078125 16.328125 15.457031 16.683594 13.9375 Z M 15.828125 34.234375 C 16.71875 34.800781 17.625 35.339844 18.542969 35.859375 C 19.480469 36.390625 20.429688 36.898438 21.386719 37.386719 C 19.851562 38.050781 18.289062 38.640625 16.695312 39.148438 C 16.324219 37.523438 16.035156 35.886719 15.828125 34.234375 Z M 30.507812 42.574219 C 29.792969 44.816406 28.664062 46.914062 27.175781 48.757812 C 26.433594 49.824219 25.277344 50.539062 23.980469 50.738281 C 22.015625 50.738281 19.519531 47.863281 17.816406 43.066406 C 17.617188 42.5 17.433594 41.925781 17.261719 41.347656 C 19.589844 40.609375 21.863281 39.714844 24.070312 38.671875 C 26.296875 39.683594 28.582031 40.550781 30.925781 41.265625 C 30.796875 41.703125 30.65625 42.140625 30.507812 42.574219 Z M 31.480469 39.066406 C 29.949219 38.597656 28.359375 38.023438 26.742188 37.351562 C 27.65625 36.882812 28.574219 36.382812 29.5 35.855469 C 30.449219 35.3125 31.375 34.757812 32.277344 34.191406 C 32.097656 35.832031 31.832031 37.453125 31.480469 39.066406 Z M 32.683594 26.496094 C 32.683594 28.105469 32.632812 29.714844 32.53125 31.320312 C 31.203125 32.203125 29.804688 33.066406 28.347656 33.894531 C 26.894531 34.71875 25.460938 35.476562 24.054688 36.164062 C 22.570312 35.460938 21.113281 34.710938 19.6875 33.898438 C 18.273438 33.09375 16.886719 32.242188 15.535156 31.332031 C 15.410156 29.722656 15.34375 28.113281 15.34375 26.503906 C 15.34375 24.894531 15.40625 23.285156 15.53125 21.679688 C 18.234375 19.859375 21.074219 18.242188 24.027344 16.847656 C 25.492188 17.546875 26.929688 18.300781 28.339844 19.101562 C 29.757812 19.90625 31.148438 20.753906 32.511719 21.644531 C 32.625 23.257812 32.683594 24.875 32.683594 26.496094 Z M 35.257812 13 C 40.429688 12.007812 44.324219 12.675781 45.300781 14.34375 C 46.34375 16.117188 44.851562 20.035156 41.121094 24.164062 C 40.914062 24.390625 40.699219 24.621094 40.480469 24.847656 C 38.660156 23.230469 36.734375 21.734375 34.710938 20.375 C 34.503906 18.015625 34.144531 15.667969 33.621094 13.355469 C 34.179688 13.222656 34.722656 13.101562 35.257812 13 Z M 34.90625 23.292969 C 36.273438 24.273438 37.585938 25.324219 38.839844 26.441406 C 37.589844 27.574219 36.28125 28.644531 34.917969 29.644531 C 34.960938 28.59375 34.984375 27.542969 34.984375 26.496094 C 34.984375 25.429688 34.957031 24.363281 34.90625 23.292969 Z M 45.316406 38.636719 C 44.339844 40.308594 40.558594 41.003906 35.488281 40.0625 C 34.90625 39.953125 34.3125 39.824219 33.703125 39.671875 C 34.210938 37.332031 34.558594 34.957031 34.742188 32.566406 C 36.761719 31.183594 38.683594 29.664062 40.492188 28.023438 C 40.808594 28.34375 41.109375 28.667969 41.394531 28.984375 C 43.011719 30.71875 44.289062 32.726562 45.171875 34.914062 C 45.742188 36.082031 45.792969 37.429688 45.316406 38.636719 Z M 21.589844 22.363281 C 19.289062 23.667969 18.503906 26.5625 19.832031 28.828125 C 21.15625 31.089844 24.097656 31.863281 26.394531 30.558594 C 28.691406 29.25 29.480469 26.355469 28.152344 24.09375 C 26.828125 21.832031 23.890625 21.054688 21.589844 22.363281 C 21.589844 22.359375 21.589844 22.359375 21.589844 22.363281 Z M 21.589844 22.363281 "/>
</g>
</svg>
