<?xml version="1.0" encoding="UTF-8"?>
<svg xmlns="http://www.w3.org/2000/svg" xmlns:xlink="http://www.w3.org/1999/xlink" width="100px" height="80px" viewBox="0 0 12 10" version="1.1">
<defs>
<radialGradient id="radial0" gradientUnits="userSpaceOnUse" cx="-514.5275" cy="-535.3693" fx="-514.5275" fy="-535.3693" r="1.0006" gradientTransform="matrix(0.000000000000000881,14.3808,-14.2359,0.000000000000000872,-7596.5493,7419.1621)">
<stop offset="0.3335" style="stop-color:rgb(96.862745%,70.588235%,31.372549%);stop-opacity:1;"/>
<stop offset="0.6477" style="stop-color:rgb(100%,78.823529%,46.666667%);stop-opacity:1;"/>
<stop offset="1" style="stop-color:rgb(100%,60%,0%);stop-opacity:1;"/>
</radialGradient>
</defs>
<g id="surface1">
<path style=" stroke:none;fill-rule:nonzero;fill:rgb(100%,100%,100%);fill-opacity:1;" d="M 7.765625 4.875 C 7.816406 4.851562 7.886719 4.898438 7.886719 4.949219 L 7.984375 5.324219 C 8.007812 5.375 7.960938 5.449219 7.910156 5.449219 C 7.863281 5.476562 7.792969 5.425781 7.792969 5.375 L 7.695312 5 C 7.671875 4.949219 7.695312 4.875 7.765625 4.875 Z M 5.003906 2.070312 C 4.976562 2.019531 4.976562 1.945312 5.027344 1.917969 L 5.339844 1.695312 C 5.386719 1.667969 5.457031 1.667969 5.484375 1.71875 C 5.507812 1.792969 5.507812 1.84375 5.457031 1.894531 L 5.144531 2.121094 C 5.097656 2.121094 5.027344 2.121094 5.003906 2.070312 Z M 5.003906 2.070312 "/>
<path style=" stroke:none;fill-rule:evenodd;fill:rgb(100%,68.235294%,32.941176%);fill-opacity:1;" d="M 6.613281 3.398438 C 6.253906 3.320312 5.867188 3.371094 5.53125 3.597656 C 6.011719 3.421875 6.566406 3.546875 6.949219 3.949219 C 7.480469 4.523438 7.480469 5.449219 6.949219 6.003906 C 6.878906 6.078125 6.804688 6.128906 6.734375 6.175781 C 6.925781 6.101562 7.117188 6.003906 7.261719 5.828125 C 7.648438 5.425781 7.742188 4.851562 7.597656 4.347656 C 7.191406 4.199219 6.828125 3.847656 6.613281 3.398438 Z M 6.613281 3.398438 "/>
<path style="fill-rule:nonzero;fill:url(#radial0);stroke-width:1.0716;stroke-linecap:butt;stroke-linejoin:miter;stroke:rgb(67.45098%,33.72549%,16.470588%);stroke-opacity:1;stroke-miterlimit:4;" d="M 37.002669 26.496156 C 33.396615 33.201469 24.99873 35.696469 18.403874 32.00075 C 11.695312 28.398594 9.30752 19.9 12.897331 13.194687 C 15.301367 8.79725 19.703353 6.193094 24.397721 6.005969 C 24.99873 6.005969 25.502279 6.30225 25.794661 6.894812 C 26.103288 7.502969 26.29821 8.29825 26.200749 9.093531 C 26.200749 9.405406 26.200749 9.701687 26.200749 9.997969 C 26.200749 11.401406 26.606836 12.804844 27.207845 14.005562 C 24.30026 12.898406 21.002832 14.099125 19.492188 16.906 C 17.802865 19.993562 19.004883 23.798437 21.993685 25.498156 C 24.99873 27.197875 28.897168 25.997156 30.505273 23.003156 C 31.398665 21.303437 31.496126 19.307437 30.797656 17.607719 C 31.999674 18.200281 33.299154 18.496562 34.696094 18.496562 C 35.492025 18.496562 36.206738 18.403 37.002669 18.200281 C 37.392513 18.106719 37.896061 18.106719 38.204687 18.293844 C 38.49707 18.496562 38.691992 18.699281 38.691992 18.995562 C 38.805697 21.506156 38.204687 24.094719 37.002669 26.496156 Z M 37.002669 26.496156 " transform="matrix(0.240481,0,0,0.250501,0,0.0150301)"/>
<path style="fill-rule:nonzero;fill:rgb(67.45098%,33.72549%,16.470588%);fill-opacity:1;stroke-width:1.0716;stroke-linecap:butt;stroke-linejoin:miter;stroke:rgb(67.45098%,33.72549%,16.470588%);stroke-opacity:1;stroke-miterlimit:4;" d="M 33.396615 23.798437 L 33.900163 23.595719 C 34.30625 24.593719 33.802702 25.498156 33.494076 26.199875 C 33.494076 26.199875 33.494076 26.199875 33.494076 26.293437 C 33.299154 26.698875 33.104232 26.995156 33.104232 27.307031 C 33.006771 27.806031 33.006771 28.305031 33.104232 28.601312 C 33.201693 28.897594 33.494076 29.193875 33.900163 29.303031 C 34.192546 29.396594 34.696094 29.303031 35.297103 28.897594 C 37.701139 26.106312 38.805697 22.504156 38.594531 19.104719 C 38.594531 18.792844 38.399609 18.496562 38.107227 18.293844 C 37.7986 18.106719 37.295052 18.106719 36.905208 18.200281 C 36.206738 18.403 35.394564 18.496562 34.696094 18.496562 C 33.299154 18.496562 31.999674 18.200281 30.797656 17.498562 C 31.496126 19.198281 31.398665 21.100719 30.602734 22.800437 C 30.505273 23.096719 30.294108 23.299437 30.099186 23.595719 C 30.505273 23.502156 30.895117 23.299437 31.496126 22.894 C 32.194596 22.395 33.104232 22.894 33.396615 23.798437 Z M 33.396615 23.798437 C 33.705241 24.593719 33.299154 25.295437 33.006771 25.997156 C 32.795605 26.402594 32.600684 26.792437 32.503223 27.197875 Z M 23.796712 13.600125 C 22.399772 14.005562 21.295215 13.802844 20.499284 13.397406 C 19.703353 12.898406 19.004883 12.196687 18.696257 11.401406 C 18.306413 10.496969 18.192708 9.592531 18.403874 8.79725 C 18.598796 8.001969 19.004883 7.393812 19.605892 7.097531 C 21.295215 6.395812 23.098242 6.005969 24.803809 6.005969 C 25.307357 6.005969 25.697201 6.30225 26.005827 6.80125 C 26.29821 7.30025 26.395671 8.001969 26.29821 8.594531 C 26.200749 8.999969 26.200749 9.498969 26.200749 9.997969 C 26.200749 11.401406 26.606836 12.804844 27.207845 14.005562 C 26.103288 13.506562 24.90127 13.397406 23.796712 13.600125 Z M 23.796712 13.600125 " transform="matrix(0.240481,0,0,0.250501,0,0.0150301)"/>
<path style=" stroke:none;fill-rule:nonzero;fill:rgb(67.45098%,33.72549%,16.470588%);fill-opacity:1;" d="M 3.65625 4.199219 C 3.65625 4.296875 3.578125 4.375 3.488281 4.375 C 3.394531 4.375 3.320312 4.296875 3.320312 4.199219 C 3.320312 4.101562 3.394531 4.023438 3.488281 4.023438 C 3.578125 4.023438 3.65625 4.101562 3.65625 4.199219 Z M 3.65625 4.199219 "/>
<path style=" stroke:none;fill-rule:nonzero;fill:rgb(67.45098%,33.72549%,16.470588%);fill-opacity:1;" d="M 6.15625 7.328125 C 6.15625 7.425781 6.082031 7.503906 5.988281 7.503906 C 5.894531 7.503906 5.820312 7.425781 5.820312 7.328125 C 5.820312 7.234375 5.894531 7.15625 5.988281 7.15625 C 6.082031 7.15625 6.15625 7.234375 6.15625 7.328125 Z M 6.15625 7.328125 "/>
<path style=" stroke:none;fill-rule:nonzero;fill:rgb(67.45098%,33.72549%,16.470588%);fill-opacity:1;" d="M 5.21875 7.480469 C 5.21875 7.644531 5.089844 7.78125 4.929688 7.78125 C 4.769531 7.78125 4.640625 7.644531 4.640625 7.480469 C 4.640625 7.3125 4.769531 7.179688 4.929688 7.179688 C 5.089844 7.179688 5.21875 7.3125 5.21875 7.480469 Z M 5.21875 7.480469 "/>
</g>
</svg>
